<svg width="258" height="140" viewBox="0 0 258 140" fill="none" xmlns="http://www.w3.org/2000/svg">
<g filter="url(#filter0_dii_103_1264)">
<g clip-path="url(#clip0_103_1264)">
<g filter="url(#filter1_b_103_1264)">
<rect x="3" width="252" height="133" fill="url(#paint0_linear_103_1264)"/>
</g>
<g filter="url(#filter2_f_103_1264)">
<path d="M-16.7791 117.605L230.05 -47.6834L270.341 22.6308L0.894387 137.934L-16.7791 117.605Z" fill="#01B8E3"/>
</g>
<g style="mix-blend-mode:overlay" opacity="0.5">
<rect x="3" y="-4.57764e-05" width="252" height="144" fill="url(#paint1_linear_103_1264)"/>
</g>
<path d="M219.1 24.5652C219.295 24.8094 219.442 25.1024 219.54 25.3954C219.637 25.6885 219.686 26.0303 219.686 26.3722C219.686 26.714 219.637 27.0559 219.54 27.3489C219.442 27.6419 219.295 27.935 219.1 28.1792C218.856 28.521 218.905 29.0094 219.247 29.2536C219.588 29.4978 220.077 29.4489 220.321 29.1071C220.614 28.7164 220.809 28.3257 221.005 27.8373C221.2 27.3489 221.249 26.8606 221.249 26.3722C221.249 25.8838 221.151 25.3954 221.005 24.9071C220.858 24.4675 220.614 24.028 220.321 23.6373C220.077 23.2954 219.588 23.2466 219.247 23.4908C218.905 23.735 218.856 24.2233 219.1 24.5652Z" fill="#D3E1F5"/>
<path d="M221.786 23.1489C222.372 24.0768 222.714 25.2001 222.714 26.3722C222.714 27.5443 222.372 28.6675 221.786 29.5954C221.542 29.9373 221.688 30.4257 222.03 30.6699C222.421 30.914 222.86 30.7675 223.105 30.4257C223.837 29.2536 224.277 27.8861 224.277 26.3722C224.277 24.9071 223.837 23.4908 223.105 22.3187C222.86 21.9768 222.372 21.8303 222.03 22.0745C221.688 22.3187 221.542 22.7582 221.786 23.1489Z" fill="#D3E1F5"/>
<path d="M224.619 21.6838C225.449 23.0513 225.888 24.6629 225.888 26.3722C225.888 28.0815 225.4 29.6931 224.619 31.0606C224.423 31.4513 224.521 31.8908 224.912 32.135C225.302 32.3303 225.742 32.2326 225.986 31.8419C226.963 30.2303 227.5 28.3745 227.5 26.3722C227.5 24.3699 226.963 22.514 225.986 20.9024C225.791 20.5117 225.302 20.414 224.912 20.6094C224.521 20.8536 224.423 21.2931 224.619 21.6838Z" fill="#D3E1F5"/>
<path d="M227.451 20.2187C228.477 22.0257 229.112 24.1257 229.112 26.3722C229.112 28.6187 228.526 30.7187 227.451 32.5257C227.256 32.9164 227.353 33.3559 227.744 33.6001C228.135 33.7954 228.574 33.6978 228.819 33.3071C229.991 31.2559 230.674 28.9117 230.674 26.3722C230.674 23.8326 229.991 21.4885 228.819 19.4373C228.623 19.0466 228.135 18.9489 227.744 19.1443C227.353 19.3396 227.256 19.828 227.451 20.2187Z" fill="#D3E1F5"/>
<ellipse cx="223" cy="105.488" rx="9.76744" ry="9.76744" fill="#F79E1B"/>
<ellipse cx="211.767" cy="105.488" rx="9.76744" ry="9.76744" fill="#EB001B"/>
<path d="M217.384 113.481C219.894 111.713 221.535 108.792 221.535 105.488C221.535 102.184 219.894 99.2637 217.384 97.4961C214.873 99.2637 213.233 102.184 213.233 105.488C213.233 108.792 214.873 111.713 217.384 113.481Z" fill="#FF5F00"/>
<g filter="url(#filter3_d_103_1264)">
<path d="M21.1186 82.7302V74.4523L18.1029 74.4523C17.7855 74.4523 17.4924 74.6232 17.4924 75.0627C17.4924 75.5023 17.7855 75.6732 18.1029 75.6732L19.8977 75.6732V82.7302L18.1029 82.7302C17.7855 82.7302 17.4924 82.9011 17.4924 83.3406C17.4924 83.7802 17.7855 83.9511 18.1029 83.9511L22.9134 83.9511C23.2308 83.9511 23.5238 83.7802 23.5238 83.3406V80.2639C23.5238 79.9098 23.3651 79.6534 22.9134 79.6534C22.4616 79.6534 22.3029 79.9098 22.3029 80.2639V82.7302L21.1186 82.7302Z" fill="#D3E1F5"/>
<path d="M27.5007 79.8122L30.9437 79.8122C31.3466 79.8122 31.6275 79.7511 31.9327 79.4703C32.2746 79.1529 32.3112 78.8232 32.3112 78.3837V75.8808C32.3112 75.4412 32.2746 75.1116 31.9327 74.7941C31.6275 74.5133 31.3466 74.4523 30.9437 74.4523L26.8903 74.4523C26.5728 74.4523 26.2798 74.6232 26.2798 75.0627C26.2798 75.5023 26.5728 75.6732 26.8903 75.6732L31.0903 75.6732V78.5912L27.6594 78.5912C26.7437 78.5912 26.2798 79.0552 26.2798 79.9709V83.9511L31.7007 83.9511C32.0182 83.9511 32.3112 83.7802 32.3112 83.3406C32.3112 82.9011 32.0182 82.7302 31.7007 82.7302L27.5007 82.7302V79.8122Z" fill="#D3E1F5"/>
<path d="M39.8776 75.6732V77.6999C39.8776 78.3837 39.609 78.5912 39.2671 78.5912L36.8741 78.5912C36.5567 78.5912 36.2637 78.7622 36.2637 79.2017C36.2637 79.6412 36.5567 79.8122 36.8741 79.8122L39.2671 79.8122C39.609 79.8122 39.8776 80.0197 39.8776 80.7034V82.7302L35.6776 82.7302C35.3602 82.7302 35.0671 82.9011 35.0671 83.3406C35.0671 83.7802 35.3602 83.9511 35.6776 83.9511L39.8776 83.9511C40.5735 83.9511 41.0985 83.4261 41.0985 82.7302V80.386C41.0985 79.8976 41.0009 79.5435 40.6224 79.2017C41.0009 78.8598 41.0985 78.5058 41.0985 78.0174V75.6732C41.0985 74.9773 40.5735 74.4523 39.8776 74.4523L35.6776 74.4523C35.3602 74.4523 35.0671 74.6232 35.0671 75.0627C35.0671 75.5023 35.3602 75.6732 35.6776 75.6732L39.8776 75.6732Z" fill="#D3E1F5"/>
<path d="M45.6859 79.629V75.0627C45.6859 74.7575 45.5394 74.4523 45.0754 74.4523C44.6115 74.4523 44.465 74.7575 44.465 75.0627V80.8499L48.0545 80.8499V83.3406C48.0545 83.7313 48.2254 83.9511 48.665 83.9511C49.1045 83.9511 49.2754 83.7313 49.2754 83.3406V80.8499C49.5929 80.8499 49.8859 80.679 49.8859 80.2395C49.8859 79.7999 49.5929 79.629 49.2754 79.629V76.1005C49.2754 75.7953 49.1289 75.4901 48.665 75.4901C48.201 75.4901 48.0545 75.7953 48.0545 76.1005V79.629L45.6859 79.629Z" fill="#D3E1F5"/>
<path d="M63.8589 75.6732L66.8502 75.6732C67.1676 75.6732 67.4606 75.5023 67.4606 75.0627C67.4606 74.6232 67.1676 74.4523 66.8502 74.4523L62.6379 74.4523V79.8122L66.2397 79.8122V82.7302L63.4193 82.7302C63.224 82.7302 62.9432 82.5592 62.7722 82.486L62.406 82.3273C62.2717 82.2662 62.1618 82.2296 62.0153 82.2296C61.6978 82.2296 61.4292 82.5226 61.4292 82.8401C61.4292 83.2674 61.7955 83.3773 62.1252 83.5238L62.5891 83.7313C62.8943 83.8656 63.0775 83.9511 63.3949 83.9511L66.1054 83.9511C66.5449 83.9511 66.8624 83.9023 67.1676 83.536C67.424 83.2308 67.4606 82.9622 67.4606 82.5837V79.9709C67.4606 79.5435 67.424 79.2505 67.0821 78.9331C66.7891 78.6523 66.4961 78.5912 66.1054 78.5912L63.8589 78.5912V75.6732Z" fill="#D3E1F5"/>
<path d="M71.4375 75.6732C71.7916 75.6732 72.048 75.429 72.048 75.0627C72.048 74.7453 71.7916 74.4523 71.4741 74.4523L70.7416 74.4523C70.3143 74.4523 70.2166 74.7819 70.2166 75.0627V83.1819C70.2166 83.7435 70.4364 83.9511 71.0102 83.9511L75.4544 83.9511C76.0038 83.9511 76.248 83.7558 76.248 83.1819V80.447C76.248 79.8854 76.1259 79.629 75.5154 79.629L71.4375 79.629V75.6732ZM75.0271 80.8499V82.7302L71.4375 82.7302V80.8499L75.0271 80.8499Z" fill="#D3E1F5"/>
<path d="M83.8144 75.6732V77.3581C83.8144 77.8953 83.8388 77.8831 83.4359 78.2372L81.751 79.6901C81.4458 79.9587 81.4336 79.9953 81.4336 80.3982V83.3406C81.4336 83.7313 81.6045 83.9511 82.0441 83.9511C82.4836 83.9511 82.6545 83.7313 82.6545 83.3406V80.972C82.6545 80.5447 82.6789 80.5203 82.9964 80.2395L84.7057 78.7622C85.0475 78.4691 85.0353 78.4203 85.0353 77.993V74.4523L79.6144 74.4523C79.2237 74.4523 79.0039 74.7941 79.0039 75.0627V75.6732C79.0039 75.9418 79.2237 76.2837 79.6144 76.2837C80.0051 76.2837 80.2249 75.9418 80.2249 75.6732L83.8144 75.6732Z" fill="#D3E1F5"/>
<path d="M90.2332 78.5912V75.6732L91.3808 75.6732V78.5912L90.2332 78.5912ZM89.6227 74.4523C89.2076 74.4523 89.0122 74.7453 89.0122 75.0627V78.5912C88.6337 78.5912 88.3407 78.7255 88.121 78.9331C87.9012 79.1406 87.7913 79.4459 87.7913 79.8244V82.7302C87.7913 83.4749 88.2553 83.9511 89.0122 83.9511L92.6018 83.9511C93.3587 83.9511 93.8227 83.4749 93.8227 82.7302V79.8244C93.8227 79.4459 93.7128 79.1406 93.493 78.9331C93.2733 78.7255 92.9803 78.5912 92.6018 78.5912V75.0627C92.6018 74.7453 92.4064 74.4523 91.9913 74.4523L89.6227 74.4523ZM89.0122 82.7302V79.8122L92.6018 79.8122V82.7302L89.0122 82.7302Z" fill="#D3E1F5"/>
<path d="M110.176 82.7302C109.822 82.7302 109.566 82.9744 109.566 83.3406C109.566 83.6703 109.81 83.9511 110.176 83.9511L110.787 83.9511C111.153 83.9511 111.397 83.6703 111.397 83.3406V75.0627C111.397 74.7453 111.129 74.4523 110.787 74.4523L105.976 74.4523C105.635 74.4523 105.366 74.7453 105.366 75.0627V78.1883C105.366 78.5058 105.635 78.7988 105.976 78.7988L110.176 78.7988V82.7302ZM106.587 77.5779V75.6732L110.176 75.6732V77.5779L106.587 77.5779Z" fill="#D3E1F5"/>
<path d="M115.374 74.4523C114.703 74.4523 114.153 75.0017 114.153 75.6732V82.7302C114.153 83.4139 114.678 83.9511 115.374 83.9511L118.964 83.9511C119.66 83.9511 120.185 83.4139 120.185 82.7302V75.6732C120.185 75.0017 119.635 74.4523 118.964 74.4523L115.374 74.4523ZM115.374 82.7302V75.6732L118.964 75.6732V82.7302L115.374 82.7302Z" fill="#D3E1F5"/>
<path d="M124.162 74.4523C123.49 74.4523 122.941 75.0017 122.941 75.6732V82.7302C122.941 83.4139 123.466 83.9511 124.162 83.9511L127.751 83.9511C128.447 83.9511 128.972 83.4139 128.972 82.7302V75.6732C128.972 75.0017 128.423 74.4523 127.751 74.4523L124.162 74.4523ZM124.162 82.7302V75.6732L127.751 75.6732V82.7302L124.162 82.7302Z" fill="#D3E1F5"/>
<path d="M132.949 74.4523C132.278 74.4523 131.728 75.0017 131.728 75.6732V82.7302C131.728 83.4139 132.253 83.9511 132.949 83.9511L136.539 83.9511C137.234 83.9511 137.759 83.4139 137.759 82.7302V75.6732C137.759 75.0017 137.21 74.4523 136.539 74.4523L132.949 74.4523ZM132.949 82.7302V75.6732L136.539 75.6732V82.7302L132.949 82.7302Z" fill="#D3E1F5"/>
<path d="M150.524 74.4523C149.852 74.4523 149.303 75.0017 149.303 75.6732V82.7302C149.303 83.4139 149.828 83.9511 150.524 83.9511L154.113 83.9511C154.809 83.9511 155.334 83.4139 155.334 82.7302V75.6732C155.334 75.0017 154.785 74.4523 154.113 74.4523L150.524 74.4523ZM150.524 82.7302V75.6732L154.113 75.6732V82.7302L150.524 82.7302Z" fill="#D3E1F5"/>
<path d="M159.311 74.4523C158.64 74.4523 158.09 75.0017 158.09 75.6732V82.7302C158.09 83.4139 158.615 83.9511 159.311 83.9511L162.901 83.9511C163.597 83.9511 164.122 83.4139 164.122 82.7302V75.6732C164.122 75.0017 163.572 74.4523 162.901 74.4523L159.311 74.4523ZM159.311 82.7302V75.6732L162.901 75.6732V82.7302L159.311 82.7302Z" fill="#D3E1F5"/>
<path d="M168.098 74.4523C167.427 74.4523 166.878 75.0017 166.878 75.6732V82.7302C166.878 83.4139 167.403 83.9511 168.098 83.9511L171.688 83.9511C172.384 83.9511 172.909 83.4139 172.909 82.7302V75.6732C172.909 75.0017 172.359 74.4523 171.688 74.4523L168.098 74.4523ZM168.098 82.7302V75.6732L171.688 75.6732V82.7302L168.098 82.7302Z" fill="#D3E1F5"/>
<path d="M176.886 74.4523C176.214 74.4523 175.665 75.0017 175.665 75.6732V82.7302C175.665 83.4139 176.19 83.9511 176.886 83.9511L180.475 83.9511C181.171 83.9511 181.696 83.4139 181.696 82.7302V75.6732C181.696 75.0017 181.147 74.4523 180.475 74.4523L176.886 74.4523ZM176.886 82.7302V75.6732L180.475 75.6732V82.7302L176.886 82.7302Z" fill="#D3E1F5"/>
</g>
<g filter="url(#filter4_d_103_1264)">
<path d="M18.6904 107.826V103.723L20.3782 103.723C20.7416 103.723 21.0522 103.782 21.31 103.899C21.5718 104.016 21.773 104.184 21.9137 104.403C22.0543 104.622 22.1246 104.882 22.1246 105.182C22.1246 105.483 22.0543 105.743 21.9137 105.962C21.773 106.177 21.5718 106.343 21.31 106.46C21.0522 106.573 20.7416 106.63 20.3782 106.63L19.1124 106.63L19.4523 106.284V107.826L18.6904 107.826ZM21.3745 107.826L20.3372 106.337L21.1518 106.337L22.195 107.826L21.3745 107.826ZM19.4523 106.366L19.1124 106.003L20.3431 106.003C20.6791 106.003 20.9311 105.931 21.0991 105.786C21.271 105.642 21.3569 105.44 21.3569 105.182C21.3569 104.921 21.271 104.72 21.0991 104.579C20.9311 104.438 20.6791 104.368 20.3431 104.368L19.1124 104.368L19.4523 103.993V106.366ZM22.3724 107.826L24.2185 103.723L24.9686 103.723L26.8205 107.826L26.0235 107.826L24.4353 104.128L24.74 104.128L23.1577 107.826L22.3724 107.826ZM23.2222 106.876L23.4273 106.278L25.6426 106.278L25.8477 106.876L23.2222 106.876ZM27.3178 107.826V103.723L28.0797 103.723V107.826L27.3178 107.826ZM33.6434 103.723L34.4053 103.723V107.826L33.6434 107.826V103.723ZM31.5219 107.826L30.7601 107.826V103.723L31.5219 103.723V107.826ZM33.702 106.067L31.4575 106.067V105.417L33.702 105.417V106.067ZM38.9976 107.884C38.6772 107.884 38.3822 107.831 38.1126 107.726C37.843 107.62 37.6086 107.474 37.4094 107.286C37.2101 107.095 37.0558 106.872 36.9464 106.618C36.837 106.36 36.7823 106.079 36.7823 105.774C36.7823 105.47 36.837 105.19 36.9464 104.936C37.0558 104.678 37.2101 104.456 37.4094 104.268C37.6086 104.077 37.843 103.928 38.1126 103.823C38.3822 103.717 38.6752 103.665 38.9917 103.665C39.3121 103.665 39.6051 103.717 39.8708 103.823C40.1404 103.928 40.3748 104.077 40.574 104.268C40.7733 104.456 40.9276 104.678 41.037 104.936C41.1464 105.19 41.2011 105.47 41.2011 105.774C41.2011 106.079 41.1464 106.36 41.037 106.618C40.9276 106.876 40.7733 107.099 40.574 107.286C40.3748 107.474 40.1404 107.62 39.8708 107.726C39.6051 107.831 39.314 107.884 38.9976 107.884ZM38.9917 107.216C39.1988 107.216 39.3902 107.181 39.566 107.111C39.7418 107.04 39.8942 106.941 40.0231 106.812C40.1521 106.679 40.2517 106.526 40.322 106.355C40.3963 106.179 40.4334 105.985 40.4334 105.774C40.4334 105.563 40.3963 105.372 40.322 105.2C40.2517 105.024 40.1521 104.872 40.0231 104.743C39.8942 104.61 39.7418 104.509 39.566 104.438C39.3902 104.368 39.1988 104.333 38.9917 104.333C38.7846 104.333 38.5932 104.368 38.4174 104.438C38.2455 104.509 38.0931 104.61 37.9603 104.743C37.8313 104.872 37.7297 105.024 37.6555 105.2C37.5852 105.372 37.55 105.563 37.55 105.774C37.55 105.981 37.5852 106.173 37.6555 106.349C37.7297 106.525 37.8313 106.679 37.9603 106.812C38.0892 106.941 38.2416 107.04 38.4174 107.111C38.5932 107.181 38.7846 107.216 38.9917 107.216ZM41.9842 107.826V103.723L42.7461 103.723V107.181L44.891 107.181V107.826L41.9842 107.826ZM45.4681 107.826V103.723L46.2299 103.723V107.826L45.4681 107.826ZM48.4996 107.826L46.7063 103.723L47.5326 103.723L49.1325 107.433L48.6578 107.433L50.2753 103.723L51.0372 103.723L49.2498 107.826L48.4996 107.826ZM52.1489 105.429L54.1884 105.429V106.056L52.1489 106.056V105.429ZM52.2075 107.187L54.5224 107.187V107.826L51.4457 107.826V103.723L54.4404 103.723V104.362L52.2075 104.362V107.187ZM55.3473 107.826V103.723L56.1092 103.723V107.826L55.3473 107.826ZM57.1943 107.826V103.723L58.8822 103.723C59.2455 103.723 59.5561 103.782 59.814 103.899C60.0757 104.016 60.277 104.184 60.4176 104.403C60.5583 104.622 60.6286 104.882 60.6286 105.182C60.6286 105.483 60.5583 105.743 60.4176 105.962C60.277 106.177 60.0757 106.343 59.814 106.46C59.5561 106.573 59.2455 106.63 58.8822 106.63L57.6163 106.63L57.9562 106.284V107.826L57.1943 107.826ZM59.8784 107.826L58.8411 106.337L59.6557 106.337L60.6989 107.826L59.8784 107.826ZM57.9562 106.366L57.6163 106.003L58.847 106.003C59.183 106.003 59.435 105.931 59.603 105.786C59.7749 105.642 59.8609 105.44 59.8609 105.182C59.8609 104.921 59.7749 104.72 59.603 104.579C59.435 104.438 59.183 104.368 58.847 104.368L57.6163 104.368L57.9562 103.993V106.366ZM60.8764 107.826L62.7224 103.723L63.4725 103.723L65.3244 107.826L64.5274 107.826L62.9392 104.128L63.244 104.128L61.6617 107.826L60.8764 107.826ZM61.7261 106.876L61.9312 106.278L64.1465 106.278L64.3516 106.876L61.7261 106.876Z" fill="#D3E1F5"/>
</g>
<g filter="url(#filter5_d_103_1264)">
<path d="M76.7599 107.884C76.4356 107.884 76.1426 107.802 75.8808 107.638C75.623 107.474 75.4198 107.236 75.2713 106.923C75.1229 106.607 75.0486 106.224 75.0486 105.774C75.0486 105.325 75.1229 104.944 75.2713 104.632C75.4198 104.315 75.623 104.075 75.8808 103.911C76.1426 103.747 76.4356 103.665 76.7599 103.665C77.0881 103.665 77.3811 103.747 77.639 103.911C77.8968 104.075 78.1 104.315 78.2484 104.632C78.4008 104.944 78.477 105.325 78.477 105.774C78.477 106.224 78.4008 106.607 78.2484 106.923C78.1 107.236 77.8968 107.474 77.639 107.638C77.3811 107.802 77.0881 107.884 76.7599 107.884ZM76.7599 107.222C76.9513 107.222 77.1174 107.171 77.258 107.07C77.3987 106.964 77.5081 106.804 77.5862 106.589C77.6683 106.374 77.7093 106.103 77.7093 105.774C77.7093 105.442 77.6683 105.171 77.5862 104.96C77.5081 104.745 77.3987 104.587 77.258 104.485C77.1174 104.38 76.9513 104.327 76.7599 104.327C76.5763 104.327 76.4122 104.38 76.2676 104.485C76.127 104.587 76.0156 104.745 75.9336 104.96C75.8554 105.171 75.8164 105.442 75.8164 105.774C75.8164 106.103 75.8554 106.374 75.9336 106.589C76.0156 106.804 76.127 106.964 76.2676 107.07C76.4122 107.171 76.5763 107.222 76.7599 107.222ZM80.3271 107.884C80.0379 107.884 79.7547 107.843 79.4773 107.761C79.2038 107.675 78.9733 107.558 78.7858 107.409L79.1081 106.818C79.2566 106.939 79.4363 107.036 79.6472 107.111C79.8621 107.185 80.0848 107.222 80.3153 107.222C80.5849 107.222 80.7959 107.165 80.9483 107.052C81.1046 106.939 81.1827 106.786 81.1827 106.595C81.1827 106.466 81.1495 106.353 81.0831 106.255C81.0206 106.157 80.9072 106.083 80.7432 106.032C80.583 105.981 80.3622 105.956 80.0809 105.956L79.0905 105.956L79.3015 103.723L81.7101 103.723V104.362L79.5828 104.362L79.9813 103.999L79.8231 105.669L79.4246 105.311L80.2509 105.311C80.6572 105.311 80.9834 105.366 81.2296 105.476C81.4796 105.581 81.6613 105.729 81.7746 105.921C81.8918 106.108 81.9504 106.323 81.9504 106.566C81.9504 106.804 81.8918 107.023 81.7746 107.222C81.6574 107.421 81.4777 107.581 81.2354 107.702C80.9971 107.824 80.6943 107.884 80.3271 107.884ZM83.527 108.412L85.4609 102.891L86.1173 102.891L84.1834 108.412L83.527 108.412ZM87.6535 107.826V107.316L89.2827 105.769C89.4195 105.64 89.521 105.526 89.5875 105.429C89.6539 105.331 89.6968 105.241 89.7164 105.159C89.7398 105.073 89.7515 104.993 89.7515 104.919C89.7515 104.731 89.6871 104.587 89.5581 104.485C89.4292 104.38 89.2397 104.327 88.9897 104.327C88.7904 104.327 88.6088 104.362 88.4447 104.432C88.2845 104.503 88.1458 104.61 88.0286 104.755L87.4953 104.344C87.6555 104.13 87.8703 103.964 88.1399 103.846C88.4134 103.725 88.7181 103.665 89.0541 103.665C89.3511 103.665 89.6089 103.713 89.8277 103.811C90.0504 103.905 90.2204 104.04 90.3376 104.216C90.4587 104.391 90.5193 104.6 90.5193 104.843C90.5193 104.975 90.5017 105.108 90.4665 105.241C90.4314 105.37 90.3649 105.507 90.2673 105.651C90.1696 105.796 90.027 105.958 89.8395 106.138L88.4388 107.468L88.2806 107.181L90.6775 107.181V107.826L87.6535 107.826ZM90.9483 106.894V106.366L92.9702 103.723L93.7848 103.723L91.7923 106.366L91.4113 106.249L94.6639 106.249V106.894L90.9483 106.894ZM93.1988 107.826V106.894L93.2222 106.249V105.423L93.9372 105.423V107.826L93.1988 107.826Z" fill="#D3E1F5"/>
</g>
<g clip-path="url(#clip1_103_1264)">
<path d="M35.8224 23.1937L28.6397 31.6676L28.048 32.365L24.8375 36.1526L25.7751 32.4026L26.9879 27.5551L20.1522 27.5551L27.3355 19.0812L31.1366 14.5972L28.9868 23.1937L35.8224 23.1937Z" fill="url(#paint2_linear_103_1264)"/>
<path d="M35.8224 23.1918L28.9819 31.2712L28.6404 31.6752L29.1206 29.7595C29.186 29.4982 29.1908 29.2254 29.1346 28.962C29.0784 28.6986 28.9627 28.4514 28.7962 28.2391C28.6298 28.0269 28.4169 27.8553 28.1739 27.7373C27.9309 27.6193 27.6641 27.558 27.3938 27.558L20.1522 27.558L27.3381 19.0747L26.859 20.9903C26.7943 21.2516 26.79 21.5241 26.8465 21.7873C26.9029 22.0504 27.0187 22.2973 27.185 22.5094C27.3514 22.7214 27.5639 22.8931 27.8066 23.0113C28.0493 23.1295 28.3157 23.1912 28.5859 23.1918L35.8224 23.1918Z" fill="url(#paint3_linear_103_1264)"/>
</g>
</g>
</g>
<defs>
<filter id="filter0_dii_103_1264" x="0" y="-0.488374" width="258" height="140.488" filterUnits="userSpaceOnUse" color-interpolation-filters="sRGB">
<feFlood flood-opacity="0" result="BackgroundImageFix"/>
<feColorMatrix in="SourceAlpha" type="matrix" values="0 0 0 0 0 0 0 0 0 0 0 0 0 0 0 0 0 0 127 0" result="hardAlpha"/>
<feOffset dy="4"/>
<feGaussianBlur stdDeviation="1.5"/>
<feColorMatrix type="matrix" values="0 0 0 0 0.980392 0 0 0 0 0.984314 0 0 0 0 0.988235 0 0 0 0.1 0"/>
<feBlend mode="normal" in2="BackgroundImageFix" result="effect1_dropShadow_103_1264"/>
<feBlend mode="normal" in="SourceGraphic" in2="effect1_dropShadow_103_1264" result="shape"/>
<feColorMatrix in="SourceAlpha" type="matrix" values="0 0 0 0 0 0 0 0 0 0 0 0 0 0 0 0 0 0 127 0" result="hardAlpha"/>
<feOffset dy="0.976744"/>
<feGaussianBlur stdDeviation="0.488372"/>
<feComposite in2="hardAlpha" operator="arithmetic" k2="-1" k3="1"/>
<feColorMatrix type="matrix" values="0 0 0 0 1 0 0 0 0 1 0 0 0 0 1 0 0 0 0.15 0"/>
<feBlend mode="normal" in2="shape" result="effect2_innerShadow_103_1264"/>
<feColorMatrix in="SourceAlpha" type="matrix" values="0 0 0 0 0 0 0 0 0 0 0 0 0 0 0 0 0 0 127 0" result="hardAlpha"/>
<feOffset dx="-0.488372" dy="-0.488372"/>
<feGaussianBlur stdDeviation="0.488372"/>
<feComposite in2="hardAlpha" operator="arithmetic" k2="-1" k3="1"/>
<feColorMatrix type="matrix" values="0 0 0 0 0 0 0 0 0 0 0 0 0 0 0 0 0 0 0.04 0"/>
<feBlend mode="normal" in2="effect2_innerShadow_103_1264" result="effect3_innerShadow_103_1264"/>
</filter>
<filter id="filter1_b_103_1264" x="-11.6512" y="-14.6512" width="281.302" height="162.302" filterUnits="userSpaceOnUse" color-interpolation-filters="sRGB">
<feFlood flood-opacity="0" result="BackgroundImageFix"/>
<feGaussianBlur in="BackgroundImageFix" stdDeviation="7.32558"/>
<feComposite in2="SourceAlpha" operator="in" result="effect1_backgroundBlur_103_1264"/>
<feBlend mode="normal" in="SourceGraphic" in2="effect1_backgroundBlur_103_1264" result="shape"/>
</filter>
<filter id="filter2_f_103_1264" x="-53.407" y="-84.3113" width="360.375" height="258.874" filterUnits="userSpaceOnUse" color-interpolation-filters="sRGB">
<feFlood flood-opacity="0" result="BackgroundImageFix"/>
<feBlend mode="normal" in="SourceGraphic" in2="BackgroundImageFix" result="shape"/>
<feGaussianBlur stdDeviation="18.314" result="effect1_foregroundBlur_103_1264"/>
</filter>
<filter id="filter3_d_103_1264" x="17.2482" y="74.4523" width="164.692" height="10.2314" filterUnits="userSpaceOnUse" color-interpolation-filters="sRGB">
<feFlood flood-opacity="0" result="BackgroundImageFix"/>
<feColorMatrix in="SourceAlpha" type="matrix" values="0 0 0 0 0 0 0 0 0 0 0 0 0 0 0 0 0 0 127 0" result="hardAlpha"/>
<feOffset dy="0.488372"/>
<feGaussianBlur stdDeviation="0.122093"/>
<feColorMatrix type="matrix" values="0 0 0 0 1 0 0 0 0 1 0 0 0 0 1 0 0 0 0.31 0"/>
<feBlend mode="normal" in2="BackgroundImageFix" result="effect1_dropShadow_103_1264"/>
<feBlend mode="normal" in="SourceGraphic" in2="effect1_dropShadow_103_1264" result="shape"/>
</filter>
<filter id="filter4_d_103_1264" x="18.4462" y="103.665" width="47.1224" height="4.9521" filterUnits="userSpaceOnUse" color-interpolation-filters="sRGB">
<feFlood flood-opacity="0" result="BackgroundImageFix"/>
<feColorMatrix in="SourceAlpha" type="matrix" values="0 0 0 0 0 0 0 0 0 0 0 0 0 0 0 0 0 0 127 0" result="hardAlpha"/>
<feOffset dy="0.488372"/>
<feGaussianBlur stdDeviation="0.122093"/>
<feColorMatrix type="matrix" values="0 0 0 0 1 0 0 0 0 1 0 0 0 0 1 0 0 0 0.21 0"/>
<feBlend mode="normal" in2="BackgroundImageFix" result="effect1_dropShadow_103_1264"/>
<feBlend mode="normal" in="SourceGraphic" in2="effect1_dropShadow_103_1264" result="shape"/>
</filter>
<filter id="filter5_d_103_1264" x="74.8044" y="102.891" width="20.1037" height="6.25311" filterUnits="userSpaceOnUse" color-interpolation-filters="sRGB">
<feFlood flood-opacity="0" result="BackgroundImageFix"/>
<feColorMatrix in="SourceAlpha" type="matrix" values="0 0 0 0 0 0 0 0 0 0 0 0 0 0 0 0 0 0 127 0" result="hardAlpha"/>
<feOffset dy="0.488372"/>
<feGaussianBlur stdDeviation="0.122093"/>
<feColorMatrix type="matrix" values="0 0 0 0 1 0 0 0 0 1 0 0 0 0 1 0 0 0 0.21 0"/>
<feBlend mode="normal" in2="BackgroundImageFix" result="effect1_dropShadow_103_1264"/>
<feBlend mode="normal" in="SourceGraphic" in2="effect1_dropShadow_103_1264" result="shape"/>
</filter>
<linearGradient id="paint0_linear_103_1264" x1="-10.9281" y1="-8.08345" x2="240.161" y2="172.004" gradientUnits="userSpaceOnUse">
<stop offset="0.234375" stop-color="#050624"/>
<stop offset="1" stop-color="#3D7AE5"/>
</linearGradient>
<linearGradient id="paint1_linear_103_1264" x1="9.44651" y1="-9.06671" x2="237.631" y2="161.918" gradientUnits="userSpaceOnUse">
<stop stop-color="white"/>
<stop offset="1" stop-opacity="0"/>
</linearGradient>
<linearGradient id="paint2_linear_103_1264" x1="35.8224" y1="23.1851" x2="20.4714" y2="27.4114" gradientUnits="userSpaceOnUse">
<stop offset="0.01" stop-color="#36D9FF"/>
<stop offset="0.255208" stop-color="#3D8AEA"/>
<stop offset="0.5" stop-color="#4444D7"/>
<stop offset="0.98" stop-color="#3A3345"/>
</linearGradient>
<linearGradient id="paint3_linear_103_1264" x1="20.1522" y1="27.4424" x2="35.8102" y2="23.0679" gradientUnits="userSpaceOnUse">
<stop stop-color="#36D9FF"/>
<stop offset="1" stop-color="#4A00C5"/>
</linearGradient>
<clipPath id="clip0_103_1264">
<rect x="3" width="252" height="133" rx="9.76744" fill="white"/>
</clipPath>
<clipPath id="clip1_103_1264">
<rect width="21.6726" height="21.5554" fill="white" transform="translate(17.3702 14.5975)"/>
</clipPath>
</defs>
</svg>
